<?xml version="1.0" standalone="no"?><!-- Generator: Gravit.io --><svg xmlns="http://www.w3.org/2000/svg" xmlns:xlink="http://www.w3.org/1999/xlink" style="isolation:isolate" viewBox="0 0 450 450" width="450" height="450"><defs><clipPath id="_clipPath_aGnNmb7breuW5YPMwkMQUFwKDbRrz4aZ"><rect width="450" height="450"/></clipPath></defs><g clip-path="url(#_clipPath_aGnNmb7breuW5YPMwkMQUFwKDbRrz4aZ)"><linearGradient id="_lgradient_0" x1="0.018133632175591552" y1="0.46137400732894307" x2="0.9999999999999998" y2="0.46137400732894307" gradientTransform="matrix(110.319,0,0,155.337,45.094,74.041)" gradientUnits="userSpaceOnUse"><stop offset="100%" stop-opacity="1" style="stop-color:rgb(255,255,255)"/><stop offset="100%" stop-opacity="1" style="stop-color:rgb(0,0,0)"/></linearGradient><path d=" M 45.094 161.094 C 45.685 161.305 50.881 157.457 51.5 157.625 C 59.656 158.719 68.368 161.864 75.313 156.125 C 77.545 154.28 80.26 152.408 82.416 150.967 C 83.9 149.974 85.175 152.012 86.549 151.058 C 95.369 144.936 101.666 125.952 104.259 116.378 C 106.023 109.862 110.259 81.828 102.047 77.476 C 93.118 72.743 90.518 113.91 90.5 116.25 C 90.267 145.922 87.368 164.115 86.19 193.696 C 85.852 202.182 83.209 218.091 91.434 223.709 C 95.203 226.283 96.136 217.318 96.542 214.749 C 98.115 204.794 96.91 195.322 96.056 185.353 C 95.387 177.555 92.246 170.677 89.304 163.388 C 88.775 162.076 84.991 153.083 85.62 152.956 C 91.166 151.838 92.206 163.878 100.166 159.044 C 104.521 156.399 109.718 151.626 111.688 147.063 C 112.435 145.331 110.06 140.321 111.938 140.5 C 114.151 140.711 113.091 142.708 113.063 146.313 C 113.017 152.09 114.063 158.375 117.188 159.625 C 120.813 160.375 121.808 158.961 123.563 156.25 C 125.317 153.539 126.012 148.58 126.063 145.375 C 126.51 140.049 122.892 136.551 120.62 134.676 C 116.635 131.389 110.079 141.849 115.652 143.637 C 123.236 146.07 130.674 130.451 132.568 125.458 C 133.462 123.1 136.214 120.904 136.763 118.45 C 136.783 118.361 137.374 116.644 137.239 116.739 C 136.384 117.337 138.843 118.126 139.383 119.019 C 139.647 119.456 137.344 124.717 137.725 126.132 C 137.962 127.012 145.126 130.359 146.333 134.318 C 149.149 143.56 138.714 159.701 139.875 169.375 C 141.216 180.547 148.303 177.46 152.625 168.125 L 155.413 169.811 C 152.992 171.974 152.939 175.812 149.836 177.734 C 143.441 181.696 138.937 176.178 137.693 170.193 C 135.909 161.61 144.251 138.159 142.19 133.825 C 140.552 130.38 134.045 130.206 132.31 126.961 C 131.666 125.756 135.101 115.761 137.68 116.035 C 143.382 116.639 139.004 123.257 137.697 126.812 C 135.192 133.627 125.486 148.715 115.905 146.348 C 106.609 144.051 112.146 129.8 120.827 131.173 C 132.044 132.947 127.357 161.681 118.214 163.149 C 107.719 164.834 105.548 141.199 113.32 140.433 C 113.473 140.418 110.202 150.683 109.953 151.269 C 107.22 157.699 101.239 164.064 93.715 161.903 C 92.124 161.446 84.383 154.701 86.263 152.666 C 90.342 148.248 97.125 162.996 98.059 165.922 C 103.007 181.426 104.609 199.941 101.845 216.066 C 100.95 221.288 97.327 231.751 90.277 228.891 C 79.424 224.491 79.451 209.013 79.746 199.25 C 80.694 167.922 82.444 136 84.911 104.747 C 85.398 98.566 91.955 68.961 104.182 74.799 C 115.125 80.023 111.27 104.689 109.151 112.972 C 105.934 125.545 98.185 143.726 87.635 152.167 C 85.021 154.258 84.03 151.196 82.276 152.656 C 75.556 158.247 68.738 163.425 60.971 164.575 C 56.125 165.292 50.911 164.443 45.121 161.149" fill="url(#_lgradient_0)" vector-effect="non-scaling-stroke" stroke-width="1" stroke="rgb(255,255,255)" stroke-linejoin="round" stroke-linecap="round" stroke-miterlimit="4"/><linearGradient id="_lgradient_1" x1="0.018133632175591552" y1="0.46137400732894307" x2="0.9999999999999998" y2="0.46137400732894307" gradientTransform="matrix(29.532,0,0,90.121,166.081,75.463)" gradientUnits="userSpaceOnUse"><stop offset="100%" stop-opacity="1" style="stop-color:rgb(255,255,255)"/><stop offset="100%" stop-opacity="1" style="stop-color:rgb(0,0,0)"/></linearGradient><path d=" M 179.25 78.156 C 179.25 78.156 179.688 75.094 182.781 75.5 C 185.469 76.25 184.531 78.875 184.313 79.719 C 180.134 100.494 173.616 130.214 171.948 141.724 C 171.145 147.268 167.277 159.199 172.759 163.44 C 177.548 167.145 187.785 142.135 189.373 139.078 C 190.582 136.75 191.822 134.521 192.868 132.1 C 193.013 131.762 194.341 127.92 194.277 127.935 L 195.613 127.933 C 193.642 138.65 185.628 154.169 178.896 162.837 C 174.703 168.236 168.076 165.024 166.945 158.841 C 162.707 135.665 175.222 95.754 179.167 78.133" fill-rule="evenodd" fill="url(#_lgradient_1)" vector-effect="non-scaling-stroke" stroke-width="1" stroke="rgb(255,255,255)" stroke-linejoin="round" stroke-linecap="round" stroke-miterlimit="4"/><linearGradient id="_lgradient_2" x1="0.018133632175591552" y1="0.46137400732894307" x2="0.9999999999999998" y2="0.46137400732894307" gradientTransform="matrix(32.476,0,0,104.42,191.801,51.283)" gradientUnits="userSpaceOnUse"><stop offset="100%" stop-opacity="1" style="stop-color:rgb(255,255,255)"/><stop offset="100%" stop-opacity="1" style="stop-color:rgb(0,0,0)"/></linearGradient><path d=" M 197.063 123.906 C 197.589 118.292 201.588 114.485 204.439 109.734 C 211.219 98.435 215.441 86.391 219.628 73.94 C 221.088 69.598 225.96 55.955 219.198 53.468 C 209.642 49.953 205.812 70.185 203.891 75.266 C 197.129 93.159 197.511 112.212 197.526 131.14 C 197.53 137.64 198.161 144.335 198.438 150.813 C 198.477 151.74 198.563 151.688 198.512 153.343 C 198.5 154.25 198.438 155.531 196.563 155.688 C 194.688 155.844 193.741 154.872 193.23 150.939 C 192.21 143.099 191.563 135.18 191.884 127.256 C 192.719 106.668 193.521 88.998 201.517 69.854 C 204.511 62.686 207.995 51.388 217.226 51.284 C 226.678 51.177 224.396 64.173 222.918 70.092 C 219.225 84.879 213.108 99.509 205.12 112.43 C 202.861 116.083 198.675 124.259 194.41 125.339" fill-rule="evenodd" fill="url(#_lgradient_2)" vector-effect="non-scaling-stroke" stroke-width="1" stroke="rgb(255,255,255)" stroke-linejoin="round" stroke-linecap="round" stroke-miterlimit="4"/><linearGradient id="_lgradient_3" x1="0.018133632175591552" y1="0.46137400732894307" x2="0.9999999999999998" y2="0.46137400732894307" gradientTransform="matrix(38.446,0,0,47.227,195.415,121.89)" gradientUnits="userSpaceOnUse"><stop offset="100%" stop-opacity="1" style="stop-color:rgb(255,255,255)"/><stop offset="100%" stop-opacity="1" style="stop-color:rgb(0,0,0)"/></linearGradient><path d=" M 195.415 146.135 C 196.302 142.452 205.055 116.469 212.345 122.912 C 219.694 129.407 213.126 147.767 212.583 155.78 C 212.517 156.746 211.64 167.892 214.331 167.45 C 222.786 166.061 226.431 146.636 228.184 140.269 C 229.017 137.247 229.702 134.287 230.469 131.261 C 230.515 131.081 231.078 127.919 231.356 128.354 L 233.743 128.947 C 234.172 128.089 233.311 130.815 233.084 131.747 C 232.329 134.855 231.631 137.82 230.73 140.901 C 228.669 147.948 224.844 167.184 215.5 169.024 C 210.591 169.99 210.221 163.216 210.134 160.067 C 210.071 157.803 217.916 108.819 205.341 129.932 C 204.251 131.763 203.21 133.52 202.354 135.484 C 200.796 139.055 199.296 142.828 198.165 146.553" fill-rule="evenodd" fill="url(#_lgradient_3)" vector-effect="non-scaling-stroke" stroke-width="1" stroke="rgb(255,255,255)" stroke-linejoin="round" stroke-linecap="round" stroke-miterlimit="4"/><linearGradient id="_lgradient_4" x1="0.018133632175591552" y1="0.46137400732894307" x2="0.9999999999999998" y2="0.46137400732894307" gradientTransform="matrix(29.118,0,0,52.055,227.519,104.52)" gradientUnits="userSpaceOnUse"><stop offset="100%" stop-opacity="1" style="stop-color:rgb(255,255,255)"/><stop offset="100%" stop-opacity="1" style="stop-color:rgb(0,0,0)"/></linearGradient><path d=" M 235.081 130.608 C 241.783 129.639 244.979 120.029 245.369 113.956 C 245.486 112.123 246.15 105.78 242.888 107.017 C 236.273 109.525 233.057 134.291 233.894 140.386 C 234.281 143.198 235.259 153.309 240.787 151.027 C 249.71 147.345 249.192 136.256 254.746 131.097 L 256.526 132.871 C 257.236 131.434 254.329 140.745 253.379 142.65 C 250.207 149.013 242.215 161.14 233.685 154.787 C 222.726 146.625 228.757 126.141 233.58 116.378 C 235.282 112.931 238.948 102.812 244.701 104.769 C 251.646 107.133 244.784 133.28 233.659 132.392" fill-rule="evenodd" fill="url(#_lgradient_4)" vector-effect="non-scaling-stroke" stroke-width="1" stroke="rgb(255,255,255)" stroke-linejoin="round" stroke-linecap="round" stroke-miterlimit="4"/><linearGradient id="_lgradient_5" x1="0.018133632175591552" y1="0.46137400732894307" x2="0.9999999999999998" y2="0.46137400732894307" gradientTransform="matrix(41.863,0,0,22.194,142.238,93.642)" gradientUnits="userSpaceOnUse"><stop offset="100%" stop-opacity="1" style="stop-color:rgb(255,255,255)"/><stop offset="100%" stop-opacity="1" style="stop-color:rgb(0,0,0)"/></linearGradient><path d=" M 142.281 95.5 C 142.281 95.5 141.969 94.125 143.031 93.75 C 143.906 93.438 144.172 93.838 144.844 94.5 C 146.196 95.831 150.686 101.053 151.219 101.625 C 159.126 110.112 165.874 112.068 171.844 112.906 C 177.406 112.156 179.326 111.06 182.281 110.313 C 183.281 109.844 183.594 109.906 183.969 110.906 Q 184.344 111.906 183.656 112.188 C 182.719 113.656 174.4 116.588 168.656 115.656 C 157.727 113.883 147.405 105.106 142.257 95.543" fill-rule="evenodd" fill="url(#_lgradient_5)" vector-effect="non-scaling-stroke" stroke-width="1" stroke="rgb(255,255,255)" stroke-linejoin="round" stroke-linecap="round" stroke-miterlimit="4"/><linearGradient id="_lgradient_6" x1="0.018133632175591552" y1="0.46137400732894307" x2="0.9999999999999998" y2="0.46137400732894307" gradientTransform="matrix(57.995,0,0,106.743,123.061,176.63)" gradientUnits="userSpaceOnUse"><stop offset="100%" stop-opacity="1" style="stop-color:rgb(255,255,255)"/><stop offset="100%" stop-opacity="1" style="stop-color:rgb(0,0,0)"/></linearGradient><path d=" M 123.156 233.656 C 123.297 234.076 122.789 233.671 123.281 233.781 C 123.469 232.719 126.037 230.781 126.156 231.031 C 127.823 234.517 131.191 241.374 134.656 243.594 C 147.376 251.746 161.731 220.445 165.507 211.971 C 167.118 208.355 168.361 204.635 169.792 200.944 C 171.359 196.903 177.104 182.971 172.464 178.688 C 168.939 175.435 166.54 182.62 165.83 184.72 C 162.911 193.358 161.591 202.323 159.911 211.281 C 156.61 228.89 154.557 245.833 153.875 263.75 C 153.751 266.997 151.713 277.427 154.319 280.264 C 157.817 284.073 163.962 274.984 165.187 272.944 C 170.379 264.3 173.731 254.02 177.076 244.568 C 177.742 242.686 178.639 234.847 180.762 234.476 L 181.056 234.77 C 179.638 233.806 180.134 238.072 179.656 239.719 C 178.785 242.718 177.811 245.605 176.735 248.551 C 175.718 251.334 174.712 254.122 173.642 256.885 C 171.866 261.475 161.144 290.319 151.412 281.813 C 146.147 277.211 148.917 264.397 149.294 258.566 C 150.615 238.079 152.844 218.739 158.734 198.971 C 159.434 196.624 166.322 170.353 173.61 178.031 C 178.332 183.006 172.866 196.603 171.17 201.428 C 166.378 215.059 156.965 237.987 144.16 245.499 C 135.714 250.455 124.659 242.495 123.156 233.656" fill="url(#_lgradient_6)" vector-effect="non-scaling-stroke" stroke-width="1" stroke="rgb(255,255,255)" stroke-linejoin="round" stroke-linecap="round" stroke-miterlimit="4"/><linearGradient id="_lgradient_7" x1="0.018133632175591552" y1="0.46137400732894307" x2="0.9999999999999998" y2="0.46137400732894307" gradientTransform="matrix(50.713,0,0,48.426,175.24,216.775)" gradientUnits="userSpaceOnUse"><stop offset="100%" stop-opacity="1" style="stop-color:rgb(255,255,255)"/><stop offset="100%" stop-opacity="1" style="stop-color:rgb(0,0,0)"/></linearGradient><path d=" M 194.507 227.735 C 177.995 222.485 176.778 257.464 184.888 261.08 C 189.015 262.919 192.964 257.589 194.71 254.499 C 198.567 247.675 202.154 230.913 193.515 226.471 C 188.825 224.059 190.687 238.549 196.089 235.809 C 199.411 234.125 203.619 213.189 208.575 217.312 C 213.534 221.439 211.55 235.404 212.009 240.944 C 212.226 243.562 212.621 246.877 213.417 249.376 C 213.673 250.179 213.626 252.251 214.3 251.745 C 220.986 246.735 221.58 235.662 222.903 227.644 C 223.133 226.248 222.902 219.702 224.455 218.732 L 224.967 218.731 C 227.044 220.02 225.233 226.389 224.993 227.975 C 224.36 232.142 221.077 257.558 212.446 254.353 C 205.748 251.865 209.685 225.01 207.854 218.984 C 207.158 216.69 198.645 236.597 196.338 237.536 C 189.396 240.36 184.999 225.919 191.006 224.168 C 195.994 222.715 199.201 228.46 199.708 232.518 C 200.753 240.876 195.938 269.341 182.728 264.692 C 166.245 258.891 179.857 212.285 195.814 226.423" fill="url(#_lgradient_7)" vector-effect="non-scaling-stroke" stroke-width="1" stroke="rgb(255,255,255)" stroke-linejoin="round" stroke-linecap="round" stroke-miterlimit="4"/><linearGradient id="_lgradient_8" x1="0.018133632175591552" y1="0.46137400732894307" x2="0.9999999999999998" y2="0.46137400732894307" gradientTransform="matrix(15.141,0,0,12.166,224.703,221.969)" gradientUnits="userSpaceOnUse"><stop offset="100%" stop-opacity="1" style="stop-color:rgb(255,255,255)"/><stop offset="100%" stop-opacity="1" style="stop-color:rgb(0,0,0)"/></linearGradient><path d=" M 226.286 221.969 C 228.532 231.175 231.764 236.232 238.688 230.438 L 239.844 230.098 C 233.168 239.652 226.348 230.29 224.703 222.235" fill="url(#_lgradient_8)" vector-effect="non-scaling-stroke" stroke-width="1" stroke="rgb(255,255,255)" stroke-linejoin="round" stroke-linecap="round" stroke-miterlimit="4"/><linearGradient id="_lgradient_9" x1="0.018133632175591552" y1="0.46137400732894307" x2="0.9999999999999998" y2="0.46137400732894307" gradientTransform="matrix(22.505,0,0,42.961,237.743,208.513)" gradientUnits="userSpaceOnUse"><stop offset="100%" stop-opacity="1" style="stop-color:rgb(255,255,255)"/><stop offset="100%" stop-opacity="1" style="stop-color:rgb(0,0,0)"/></linearGradient><path d=" M 242.188 229 C 245.65 228.991 248.942 223.573 249.813 218.375 C 250.349 215.172 249.657 211.497 248.438 210.875 C 241.4 207.284 241.942 233.339 242.041 237.376 C 242.111 240.221 243.129 243.388 243.823 244.542 C 244.262 245.272 245.462 247.417 245.382 246.568 C 245.334 246.06 244.122 245.811 245.849 246.837 C 248.612 248.478 251.653 246.939 253.277 244.356 C 256.045 239.953 254.337 231.475 258.938 232 L 257.879 231.903 C 264.752 231.096 255.656 257.466 243.609 250.209 C 234.74 244.866 238.162 228.365 239.651 219.913 C 240.336 216.029 242.1 208.286 247.256 208.518 C 253.955 208.82 250.352 229.704 241.845 229.71" fill="url(#_lgradient_9)" vector-effect="non-scaling-stroke" stroke-width="1" stroke="rgb(255,255,255)" stroke-linejoin="round" stroke-linecap="round" stroke-miterlimit="4"/><linearGradient id="_lgradient_10" x1="0.018133632175591552" y1="0.46137400732894307" x2="0.9999999999999998" y2="0.46137400732894307" gradientTransform="matrix(29.034,0,0,42.4,263.811,188.011)" gradientUnits="userSpaceOnUse"><stop offset="100%" stop-opacity="1" style="stop-color:rgb(255,255,255)"/><stop offset="100%" stop-opacity="1" style="stop-color:rgb(0,0,0)"/></linearGradient><path d=" M 278.452 191.051 C 274.463 188.309 270.806 193.181 269.759 196.983 C 267.674 204.553 262.129 226.1 273.981 228.705 C 277.556 229.49 280.615 223.887 281.543 221.132 C 284.363 212.765 286.155 202.24 282.526 193.906 C 278.26 184.109 272.406 199.326 283.061 202.164 C 287.273 203.285 288.765 188.025 292.235 188.797 L 292.463 188.797 C 294.421 188.354 288.382 202.368 285.127 204.404 C 278.075 208.813 272.437 195.415 275.861 190.488 C 279.92 184.648 283.9 195.097 284.781 197.291 C 287.251 203.447 282.39 231.428 273.505 230.382 C 259.436 228.726 263.649 202.077 267.821 194.137 C 270.108 189.783 275.261 185.569 279.799 189.699" fill="url(#_lgradient_10)" vector-effect="non-scaling-stroke" stroke-width="1" stroke="rgb(255,255,255)" stroke-linejoin="round" stroke-linecap="round" stroke-miterlimit="4"/><linearGradient id="_lgradient_11" x1="0.018133632175591552" y1="0.46137400732894307" x2="0.9999999999999998" y2="0.46137400732894307" gradientTransform="matrix(39.124,0,0,121.629,288.223,137.763)" gradientUnits="userSpaceOnUse"><stop offset="100%" stop-opacity="1" style="stop-color:rgb(255,255,255)"/><stop offset="100%" stop-opacity="1" style="stop-color:rgb(0,0,0)"/></linearGradient><path d=" M 291.569 188.645 C 298.699 179.035 304.32 167.417 304.317 155.323 C 304.315 147.683 303.379 134.271 296.718 146.474 C 294.129 151.216 292.006 168.854 291.962 173.929 C 291.808 191.737 292.039 194.078 293.694 211.809 C 294.661 222.168 298.478 237.507 300.015 247.804 C 300.095 248.339 303.149 258.215 305.248 257.084 C 308.253 255.464 308.152 248.124 308.014 245.502 C 307.332 232.513 304.826 220.189 302.324 207.495 C 301.448 203.05 300.241 198.181 298.299 194.116 C 298.195 193.898 295.523 187.469 295.615 187.676 C 299.542 196.467 309.07 192.206 312.457 190.942 C 315.999 189.619 320.614 185.169 322.678 180.909 C 323.591 179.024 324.477 175.748 324.426 175.836 C 324.426 175.836 324.758 174.594 325.839 174.567 C 327.399 174.526 327.343 175.9 327.343 175.9 C 327.441 177.712 325.872 180.524 324.948 182.554 C 321.533 190.053 311.322 195.037 305.264 195.069 C 301.648 195.089 289.63 189.416 294.051 187.976 C 296.592 187.148 302.911 201.454 303.279 202.474 C 308.136 215.932 310.735 231.303 310.064 245.627 C 309.897 249.191 308.735 259.663 303.322 259.387 C 294.772 258.95 292.544 231.987 291.525 225.798 C 289.597 214.086 288.196 198.128 288.283 186.21 C 288.329 179.74 288.007 175.066 288.509 168.612 C 288.853 164.189 290.985 151.075 292.022 147.003 C 292.662 144.49 296.234 133.858 301.37 139.286 C 312.221 150.753 303.016 183.074 294.129 188.912" fill="url(#_lgradient_11)" vector-effect="non-scaling-stroke" stroke-width="1" stroke="rgb(255,255,255)" stroke-linejoin="round" stroke-linecap="round" stroke-miterlimit="4"/><linearGradient id="_lgradient_12" x1="0.018133632175591552" y1="0.46137400732894307" x2="0.9999999999999998" y2="0.46137400732894307" gradientTransform="matrix(45.506,0,0,52.714,146.554,316.21)" gradientUnits="userSpaceOnUse"><stop offset="100%" stop-opacity="1" style="stop-color:rgb(255,255,255)"/><stop offset="100%" stop-opacity="1" style="stop-color:rgb(0,0,0)"/></linearGradient><path d=" M 177.098 326.682 C 175.132 324.657 175.394 321.004 172.879 319.732 C 156.685 311.544 148.809 347.315 151.81 357.599 C 153.78 364.348 161.807 365.735 166.913 361.938 C 169.286 360.173 171.366 358.51 173.489 356.416 C 176.792 353.158 179.647 349.139 182.08 345.203 C 185.449 339.756 189.561 333.852 191.96 328.023 L 191.96 328.023 C 192.895 331.068 187.019 338.852 185.525 341.446 C 180.423 350.309 168.081 377.29 153.521 366.357 C 139.947 356.164 147.888 322.107 162.943 316.58 C 168.254 314.631 180.268 320.713 176.82 326.935" fill="url(#_lgradient_12)" vector-effect="non-scaling-stroke" stroke-width="1" stroke="rgb(255,255,255)" stroke-linejoin="round" stroke-linecap="round" stroke-miterlimit="4"/><linearGradient id="_lgradient_13" x1="0.018133632175591552" y1="0.46137400732894307" x2="0.9999999999999998" y2="0.46137400732894307" gradientTransform="matrix(41.571,0,0,34.551,185.948,317.034)" gradientUnits="userSpaceOnUse"><stop offset="100%" stop-opacity="1" style="stop-color:rgb(255,255,255)"/><stop offset="100%" stop-opacity="1" style="stop-color:rgb(0,0,0)"/></linearGradient><path d=" M 208.136 322.655 C 198.411 311.165 183.608 341.332 195.487 348.586 C 204.556 354.124 210.126 330.936 209.458 325.2 C 209.435 324.998 206.691 316.83 204.875 318.26 C 199.624 322.394 207.38 334.525 212.529 335.255 C 216.547 335.825 220.927 334.205 223.684 331.185 C 224.04 330.796 228.546 325.7 227.302 328.145 L 226.732 327.519 C 228.86 333.875 205.677 343.331 203.417 326.588 C 203.108 324.293 202.162 318.608 204.925 317.179 C 207.563 315.814 210.409 324.508 210.549 325.251 C 212.298 334.537 203.346 358.001 191.075 349.92 C 176.272 340.171 197.099 304.146 208.484 322.446" fill="url(#_lgradient_13)" vector-effect="non-scaling-stroke" stroke-width="1" stroke="rgb(255,255,255)" stroke-linejoin="round" stroke-linecap="round" stroke-miterlimit="4"/><linearGradient id="_lgradient_14" x1="0.018133632175591552" y1="0.46137400732894307" x2="0.9999999999999998" y2="0.46137400732894307" gradientTransform="matrix(40.599,0,0,134.457,216.292,265.818)" gradientUnits="userSpaceOnUse"><stop offset="100%" stop-opacity="1" style="stop-color:rgb(255,255,255)"/><stop offset="100%" stop-opacity="1" style="stop-color:rgb(0,0,0)"/></linearGradient><path d=" M 225.774 328.693 C 231.685 332.178 237.251 327.233 240.592 322.431 C 248.541 311.006 251.617 299.314 254.353 285.916 C 255.241 281.567 256.532 270.145 251.397 267.784 C 245.253 264.958 239.336 291.934 238.667 293.872 C 229.983 319.025 227.482 346.907 222.484 373.014 C 221.95 375.804 219.847 396.155 224.07 397.507 C 227.162 398.497 230.334 387.675 230.723 386.203 C 233.823 374.465 234.036 362.723 232.794 350.795 C 232.353 346.55 231.895 342.451 231.17 338.242 C 230.879 336.553 230.456 331.762 229.719 333.309 L 230.594 332.511 C 232.613 334.054 232.857 341.746 233.339 344.111 C 236.304 358.666 235.743 375.015 231.828 389.369 C 231.022 392.326 224.87 405.235 220.458 398.209 C 214.069 388.034 216.47 377.39 218.267 366.086 C 221.929 343.042 224.502 318.022 233.57 296.343 C 234.984 292.961 244.091 262.491 252.188 266.117 C 258.388 268.893 257.036 280.96 256 286.167 C 253.929 296.571 243.84 339.953 225.007 329.935" fill="url(#_lgradient_14)" vector-effect="non-scaling-stroke" stroke-width="1" stroke="rgb(255,255,255)" stroke-linejoin="round" stroke-linecap="round" stroke-miterlimit="4"/><linearGradient id="_lgradient_15" x1="0.018133632175591552" y1="0.46137400732894307" x2="0.9999999999999998" y2="0.46137400732894307" gradientTransform="matrix(26.973,0,0,12.958,227.693,327.707)" gradientUnits="userSpaceOnUse"><stop offset="100%" stop-opacity="1" style="stop-color:rgb(255,255,255)"/><stop offset="100%" stop-opacity="1" style="stop-color:rgb(0,0,0)"/></linearGradient><path d=" M 229.45 327.707 C 231.687 333.431 237.387 338.953 244.047 338.398 C 246.364 338.204 249.707 337.465 251.302 335.552 C 252.007 334.706 253.68 331.874 252.916 332.668 L 254.666 332.749 C 251.447 347.551 230.572 339.02 227.693 328.1" fill="url(#_lgradient_15)" vector-effect="non-scaling-stroke" stroke-width="1" stroke="rgb(255,255,255)" stroke-linejoin="round" stroke-linecap="round" stroke-miterlimit="4"/><linearGradient id="_lgradient_16" x1="0.018133632175591552" y1="0.46137400732894307" x2="0.9999999999999998" y2="0.46137400732894307" gradientTransform="matrix(40.625,0,0,138.099,248.346,259.524)" gradientUnits="userSpaceOnUse"><stop offset="100%" stop-opacity="1" style="stop-color:rgb(255,255,255)"/><stop offset="100%" stop-opacity="1" style="stop-color:rgb(0,0,0)"/></linearGradient><path d=" M 254.332 330.122 C 269.813 321.623 279.192 300.325 284.09 284.312 C 285.87 278.491 292.17 253.805 278.166 263.317 C 271.732 267.688 270.554 279.293 269.096 286.096 C 264.378 308.118 260.431 330.039 257.408 352.364 C 256.191 361.356 255.37 370.401 254.153 379.37 C 253.709 382.639 253.464 386.006 253.726 389.273 C 253.874 391.112 254.75 395.94 255.781 394.411 C 261.833 385.433 264.536 372.634 263.63 359.905 C 263.044 351.676 258.319 341.093 258.457 334.223 L 260.403 334.313 C 260.404 332.692 262.218 337.723 262.438 338.814 C 263.231 342.75 264.595 346.638 265.32 350.624 C 267.413 362.123 266.632 376.641 262.359 387.577 C 261.303 390.279 258.168 401.062 252.921 396.521 C 245.626 390.207 249.2 377.376 249.368 369.232 C 249.924 342.207 256.56 314.144 264.142 288.362 C 266.448 280.518 272.642 253.856 286.927 260.609 C 291.429 262.737 287.194 278.207 286.483 281.436 C 282.61 299.017 272.496 324.765 254.925 332.776" fill="url(#_lgradient_16)" vector-effect="non-scaling-stroke" stroke-width="1" stroke="rgb(255,255,255)" stroke-linejoin="round" stroke-linecap="round" stroke-miterlimit="4"/><linearGradient id="_lgradient_17" x1="0.018133632175591552" y1="0.46137400732894307" x2="0.9999999999999998" y2="0.46137400732894307" gradientTransform="matrix(63.735,0,0,46.092,256.474,299.088)" gradientUnits="userSpaceOnUse"><stop offset="100%" stop-opacity="1" style="stop-color:rgb(255,255,255)"/><stop offset="100%" stop-opacity="1" style="stop-color:rgb(0,0,0)"/></linearGradient><path d=" M 256.474 326.542 C 259.032 329.05 260.206 333.278 263.363 335.254 C 274.625 342.303 279.196 330.671 285.631 324.339 C 286.74 323.247 287.847 324.489 289.463 323.143 C 293.866 319.476 308.343 307.292 300.33 300.812 C 297.548 298.562 293.596 304.717 292.702 306.688 C 289.857 312.962 282.95 336.438 293.379 340.086 C 306.46 344.662 314.504 314.59 319.328 309.223 L 320.209 309.871 C 319.155 310.431 316.84 318.255 316.294 319.477 C 312.679 327.564 302.052 350.885 289.67 343.888 C 276.98 336.717 285.444 314.243 290.577 305.124 C 293.695 299.584 300.923 295.791 303.756 303.234 C 307.827 313.93 286.866 331.126 286.691 324.533 C 286.672 323.818 285.431 327.439 283.782 330.039 C 281.303 333.949 277.157 338.711 272.18 339.245 C 265.584 339.952 253.655 333.28 257.432 325.668" fill="url(#_lgradient_17)" vector-effect="non-scaling-stroke" stroke-width="1" stroke="rgb(255,255,255)" stroke-linejoin="round" stroke-linecap="round" stroke-miterlimit="4"/><linearGradient id="_lgradient_18" x1="0.018133632175591552" y1="0.46137400732894307" x2="0.9999999999999998" y2="0.46137400732894307" gradientTransform="matrix(99.368,0,0,53.985,313.188,286.482)" gradientUnits="userSpaceOnUse"><stop offset="100%" stop-opacity="1" style="stop-color:rgb(255,255,255)"/><stop offset="100%" stop-opacity="1" style="stop-color:rgb(0,0,0)"/></linearGradient><path d=" M 319.664 312.265 C 326.683 325.403 343.178 292.354 332.919 293.684 C 324.06 294.832 309.265 339.23 328.608 337.276 C 335.01 336.63 340.434 329.831 344.614 325.724 C 356.78 313.767 367.608 298.915 383.266 291.126 C 389.607 287.972 397.545 285.472 404.675 286.887 C 407.222 287.393 415.129 291.378 411.713 294.291 L 410.474 293.813 C 410.05 295.115 408.925 291.542 408.202 290.936 C 406.428 289.452 403.585 288.85 401.397 288.68 C 391.464 287.909 382.386 292.831 374.831 298.668 C 361.013 309.345 351.205 323.761 337.927 334.826 C 332.349 339.475 323.541 343.24 317.105 337.727 C 307.797 329.755 317.195 307.194 323.422 299.823 C 325.229 297.684 330.302 290.478 333.871 291.9 C 347.609 297.373 323.94 327.886 318.056 312.457" fill="url(#_lgradient_18)" vector-effect="non-scaling-stroke" stroke-width="1" stroke="rgb(255,255,255)" stroke-linejoin="round" stroke-linecap="round" stroke-miterlimit="4"/></g></svg>